<?xml version="1.0" encoding="UTF-8" standalone="no"?>
<!DOCTYPE svg PUBLIC "-//W3C//DTD SVG 1.1//EN"
 "http://www.w3.org/Graphics/SVG/1.1/DTD/svg11.dtd">
<!-- Generated by graphviz version 2.47.0 (20210316.0004)
 -->
<!-- Title: dependencies Pages: 1 -->
<svg width="682pt" height="284pt"
 viewBox="0.00 0.00 682.00 284.00" xmlns="http://www.w3.org/2000/svg" xmlns:xlink="http://www.w3.org/1999/xlink">
<g id="graph0" class="graph" transform="scale(1 1) rotate(0) translate(4 280)">
<title>dependencies</title>
<polygon fill="white" stroke="transparent" points="-4,4 -4,-280 678,-280 678,4 -4,4"/>
<text text-anchor="start" x="316.01" y="-42.4" font-family="Times-12" font-weight="bold" font-size="14.00">Legend</text>
<polygon fill="#ffffb3" stroke="transparent" points="103,-10 103,-30 123,-30 123,-10 103,-10"/>
<text text-anchor="start" x="126.63" y="-15.4" font-family="Times-12" font-size="14.00"> &#160;Declarations</text>
<polygon fill="#8dd3c7" stroke="transparent" points="216,-10 216,-30 236,-30 236,-10 216,-10"/>
<text text-anchor="start" x="239.73" y="-15.4" font-family="Times-12" font-size="14.00"> &#160;Module</text>
<polygon fill="#80b1d3" stroke="transparent" points="302,-10 302,-30 322,-30 322,-10 302,-10"/>
<text text-anchor="start" x="325.78" y="-15.4" font-family="Times-12" font-size="14.00"> &#160;Bootstrap</text>
<polygon fill="#fdb462" stroke="transparent" points="399,-10 399,-30 419,-30 419,-10 399,-10"/>
<text text-anchor="start" x="422.67" y="-15.4" font-family="Times-12" font-size="14.00"> &#160;Providers</text>
<polygon fill="#fb8072" stroke="transparent" points="495,-10 495,-30 515,-30 515,-10 495,-10"/>
<text text-anchor="start" x="518.73" y="-15.4" font-family="Times-12" font-size="14.00"> &#160;Exports</text>
<g id="clust1" class="cluster">
<title>cluster_RestModule</title>
<polygon fill="none" stroke="black" stroke-dasharray="1,5" points="8,-70 8,-268 666,-268 666,-70 8,-70"/>
</g>
<g id="clust4" class="cluster">
<title>cluster_RestModule_exports</title>
<polygon fill="none" stroke="black" points="225,-208 225,-260 455,-260 455,-208 225,-208"/>
</g>
<g id="clust6" class="cluster">
<title>cluster_RestModule_providers</title>
<polygon fill="none" stroke="black" points="16,-78 16,-130 658,-130 658,-78 16,-78"/>
</g>
<!-- FarmService  -->
<g id="node1" class="node">
<title>FarmService </title>
<polygon fill="#fb8072" stroke="black" points="446.53,-252 355.47,-252 355.47,-216 446.53,-216 446.53,-252"/>
<text text-anchor="middle" x="401" y="-229.8" font-family="Times,serif" font-size="14.00">FarmService </text>
</g>
<!-- WorkerService  -->
<g id="node2" class="node">
<title>WorkerService </title>
<polygon fill="#fb8072" stroke="black" points="337.23,-252 232.77,-252 232.77,-216 337.23,-216 337.23,-252"/>
<text text-anchor="middle" x="285" y="-229.8" font-family="Times,serif" font-size="14.00">WorkerService </text>
</g>
<!-- RestModule -->
<g id="node3" class="node">
<title>RestModule</title>
<polygon fill="#8dd3c7" stroke="black" points="385.44,-187 382.44,-191 361.44,-191 358.44,-187 300.56,-187 300.56,-151 385.44,-151 385.44,-187"/>
<text text-anchor="middle" x="343" y="-164.8" font-family="Times,serif" font-size="14.00">RestModule</text>
</g>
<!-- RestModule&#45;&gt;FarmService  -->
<g id="edge1" class="edge">
<title>RestModule&#45;&gt;FarmService </title>
<path fill="none" stroke="black" stroke-dasharray="5,2" d="M370.35,-187.11C370.35,-187.11 370.35,-205.99 370.35,-205.99"/>
<polygon fill="black" stroke="black" points="366.85,-205.99 370.35,-215.99 373.85,-205.99 366.85,-205.99"/>
</g>
<!-- RestModule&#45;&gt;WorkerService  -->
<g id="edge2" class="edge">
<title>RestModule&#45;&gt;WorkerService </title>
<path fill="none" stroke="black" stroke-dasharray="5,2" d="M318.95,-187.11C318.95,-187.11 318.95,-205.99 318.95,-205.99"/>
<polygon fill="black" stroke="black" points="315.45,-205.99 318.95,-215.99 322.45,-205.99 315.45,-205.99"/>
</g>
<!-- FarmRepository -->
<g id="node4" class="node">
<title>FarmRepository</title>
<ellipse fill="#fdb462" stroke="black" cx="576" cy="-104" rx="73.59" ry="18"/>
<text text-anchor="middle" x="576" y="-99.8" font-family="Times,serif" font-size="14.00">FarmRepository</text>
</g>
<!-- FarmRepository&#45;&gt;RestModule -->
<g id="edge3" class="edge">
<title>FarmRepository&#45;&gt;RestModule</title>
<path fill="none" stroke="black" d="M576,-122.11C576,-141.34 576,-169 576,-169 576,-169 395.46,-169 395.46,-169"/>
<polygon fill="black" stroke="black" points="395.46,-165.5 385.46,-169 395.46,-172.5 395.46,-165.5"/>
</g>
<!-- FarmService -->
<g id="node5" class="node">
<title>FarmService</title>
<ellipse fill="#fdb462" stroke="black" cx="424" cy="-104" rx="60.25" ry="18"/>
<text text-anchor="middle" x="424" y="-99.8" font-family="Times,serif" font-size="14.00">FarmService</text>
</g>
<!-- FarmService&#45;&gt;RestModule -->
<g id="edge4" class="edge">
<title>FarmService&#45;&gt;RestModule</title>
<path fill="none" stroke="black" d="M374.42,-114.44C374.42,-114.44 374.42,-140.97 374.42,-140.97"/>
<polygon fill="black" stroke="black" points="370.92,-140.97 374.42,-150.97 377.92,-140.97 370.92,-140.97"/>
</g>
<!-- WorkerRepository -->
<g id="node6" class="node">
<title>WorkerRepository</title>
<ellipse fill="#fdb462" stroke="black" cx="263" cy="-104" rx="82.81" ry="18"/>
<text text-anchor="middle" x="263" y="-99.8" font-family="Times,serif" font-size="14.00">WorkerRepository</text>
</g>
<!-- WorkerRepository&#45;&gt;RestModule -->
<g id="edge5" class="edge">
<title>WorkerRepository&#45;&gt;RestModule</title>
<path fill="none" stroke="black" d="M323.34,-116.53C323.34,-116.53 323.34,-140.85 323.34,-140.85"/>
<polygon fill="black" stroke="black" points="319.84,-140.85 323.34,-150.85 326.84,-140.85 319.84,-140.85"/>
</g>
<!-- WorkerService -->
<g id="node7" class="node">
<title>WorkerService</title>
<ellipse fill="#fdb462" stroke="black" cx="93" cy="-104" rx="69.46" ry="18"/>
<text text-anchor="middle" x="93" y="-99.8" font-family="Times,serif" font-size="14.00">WorkerService</text>
</g>
<!-- WorkerService&#45;&gt;RestModule -->
<g id="edge6" class="edge">
<title>WorkerService&#45;&gt;RestModule</title>
<path fill="none" stroke="black" d="M93,-122.11C93,-141.34 93,-169 93,-169 93,-169 290.59,-169 290.59,-169"/>
<polygon fill="black" stroke="black" points="290.59,-172.5 300.59,-169 290.59,-165.5 290.59,-172.5"/>
</g>
</g>
</svg>
