<?xml version="1.0" encoding="UTF-8" standalone="no"?>
<!DOCTYPE svg PUBLIC "-//W3C//DTD SVG 1.1//EN"
 "http://www.w3.org/Graphics/SVG/1.1/DTD/svg11.dtd">
<!-- Generated by graphviz version 2.47.0 (20210316.0004)
 -->
<!-- Title: dependencies Pages: 1 -->
<svg width="504pt" height="284pt"
 viewBox="0.00 0.00 504.00 284.00" xmlns="http://www.w3.org/2000/svg" xmlns:xlink="http://www.w3.org/1999/xlink">
<g id="graph0" class="graph" transform="scale(1 1) rotate(0) translate(4 280)">
<title>dependencies</title>
<polygon fill="white" stroke="transparent" points="-4,4 -4,-280 500,-280 500,4 -4,4"/>
<text text-anchor="start" x="227.01" y="-42.4" font-family="Times-12" font-weight="bold" font-size="14.00">Legend</text>
<polygon fill="#ffffb3" stroke="transparent" points="14,-10 14,-30 34,-30 34,-10 14,-10"/>
<text text-anchor="start" x="37.63" y="-15.4" font-family="Times-12" font-size="14.00"> &#160;Declarations</text>
<polygon fill="#8dd3c7" stroke="transparent" points="127,-10 127,-30 147,-30 147,-10 127,-10"/>
<text text-anchor="start" x="150.73" y="-15.4" font-family="Times-12" font-size="14.00"> &#160;Module</text>
<polygon fill="#80b1d3" stroke="transparent" points="213,-10 213,-30 233,-30 233,-10 213,-10"/>
<text text-anchor="start" x="236.78" y="-15.4" font-family="Times-12" font-size="14.00"> &#160;Bootstrap</text>
<polygon fill="#fdb462" stroke="transparent" points="310,-10 310,-30 330,-30 330,-10 310,-10"/>
<text text-anchor="start" x="333.67" y="-15.4" font-family="Times-12" font-size="14.00"> &#160;Providers</text>
<polygon fill="#fb8072" stroke="transparent" points="406,-10 406,-30 426,-30 426,-10 406,-10"/>
<text text-anchor="start" x="429.73" y="-15.4" font-family="Times-12" font-size="14.00"> &#160;Exports</text>
<g id="clust1" class="cluster">
<title>cluster_AccountModule</title>
<polygon fill="none" stroke="black" stroke-dasharray="1,5" points="87,-70 87,-268 409,-268 409,-70 87,-70"/>
</g>
<g id="clust6" class="cluster">
<title>cluster_AccountModule_providers</title>
<polygon fill="none" stroke="black" points="95,-78 95,-130 401,-130 401,-78 95,-78"/>
</g>
<g id="clust4" class="cluster">
<title>cluster_AccountModule_exports</title>
<polygon fill="none" stroke="black" points="116,-208 116,-260 353,-260 353,-208 116,-208"/>
</g>
<!-- AccountService  -->
<g id="node1" class="node">
<title>AccountService </title>
<polygon fill="#fb8072" stroke="black" points="345.4,-252 236.6,-252 236.6,-216 345.4,-216 345.4,-252"/>
<text text-anchor="middle" x="291" y="-229.8" font-family="Times,serif" font-size="14.00">AccountService </text>
</g>
<!-- EmailService  -->
<g id="node2" class="node">
<title>EmailService </title>
<polygon fill="#fb8072" stroke="black" points="218.42,-252 123.58,-252 123.58,-216 218.42,-216 218.42,-252"/>
<text text-anchor="middle" x="171" y="-229.8" font-family="Times,serif" font-size="14.00">EmailService </text>
</g>
<!-- AccountModule -->
<g id="node3" class="node">
<title>AccountModule</title>
<polygon fill="#8dd3c7" stroke="black" points="245.48,-187 242.48,-191 221.48,-191 218.48,-187 138.52,-187 138.52,-151 245.48,-151 245.48,-187"/>
<text text-anchor="middle" x="192" y="-164.8" font-family="Times,serif" font-size="14.00">AccountModule</text>
</g>
<!-- AccountModule&#45;&gt;AccountService  -->
<g id="edge1" class="edge">
<title>AccountModule&#45;&gt;AccountService </title>
<path fill="none" stroke="black" stroke-dasharray="5,2" d="M241.02,-187.11C241.02,-187.11 241.02,-205.99 241.02,-205.99"/>
<polygon fill="black" stroke="black" points="237.52,-205.99 241.02,-215.99 244.52,-205.99 237.52,-205.99"/>
</g>
<!-- AccountModule&#45;&gt;EmailService  -->
<g id="edge2" class="edge">
<title>AccountModule&#45;&gt;EmailService </title>
<path fill="none" stroke="black" stroke-dasharray="5,2" d="M178.49,-187.11C178.49,-187.11 178.49,-205.99 178.49,-205.99"/>
<polygon fill="black" stroke="black" points="174.99,-205.99 178.49,-215.99 181.99,-205.99 174.99,-205.99"/>
</g>
<!-- AccountService -->
<g id="node4" class="node">
<title>AccountService</title>
<ellipse fill="#fdb462" stroke="black" cx="320" cy="-104" rx="72.91" ry="18"/>
<text text-anchor="middle" x="320" y="-99.8" font-family="Times,serif" font-size="14.00">AccountService</text>
</g>
<!-- AccountService&#45;&gt;AccountModule -->
<g id="edge3" class="edge">
<title>AccountService&#45;&gt;AccountModule</title>
<path fill="none" stroke="black" d="M247.09,-104C241.09,-104 237.27,-104 237.27,-104 237.27,-104 237.27,-140.89 237.27,-140.89"/>
<polygon fill="black" stroke="black" points="233.77,-140.89 237.27,-150.89 240.77,-140.89 233.77,-140.89"/>
</g>
<!-- EmailService -->
<g id="node5" class="node">
<title>EmailService</title>
<ellipse fill="#fdb462" stroke="black" cx="166" cy="-104" rx="63.12" ry="18"/>
<text text-anchor="middle" x="166" y="-99.8" font-family="Times,serif" font-size="14.00">EmailService</text>
</g>
<!-- EmailService&#45;&gt;AccountModule -->
<g id="edge4" class="edge">
<title>EmailService&#45;&gt;AccountModule</title>
<path fill="none" stroke="black" d="M183.78,-121.42C183.78,-121.42 183.78,-140.62 183.78,-140.62"/>
<polygon fill="black" stroke="black" points="180.28,-140.62 183.78,-150.62 187.28,-140.62 180.28,-140.62"/>
</g>
</g>
</svg>
