<?xml version="1.0" encoding="UTF-8" standalone="no"?>
<!DOCTYPE svg PUBLIC "-//W3C//DTD SVG 1.1//EN"
 "http://www.w3.org/Graphics/SVG/1.1/DTD/svg11.dtd">
<!-- Generated by graphviz version 2.47.0 (20210316.0004)
 -->
<!-- Title: dependencies Pages: 1 -->
<svg width="607pt" height="211pt"
 viewBox="0.00 0.00 607.00 211.00" xmlns="http://www.w3.org/2000/svg" xmlns:xlink="http://www.w3.org/1999/xlink">
<g id="graph0" class="graph" transform="scale(1 1) rotate(0) translate(4 207)">
<title>dependencies</title>
<polygon fill="white" stroke="transparent" points="-4,4 -4,-207 603,-207 603,4 -4,4"/>
<text text-anchor="start" x="278.51" y="-42.4" font-family="Times-12" font-weight="bold" font-size="14.00">Legend</text>
<polygon fill="#ffffb3" stroke="transparent" points="65.5,-10 65.5,-30 85.5,-30 85.5,-10 65.5,-10"/>
<text text-anchor="start" x="89.13" y="-15.4" font-family="Times-12" font-size="14.00"> &#160;Declarations</text>
<polygon fill="#8dd3c7" stroke="transparent" points="178.5,-10 178.5,-30 198.5,-30 198.5,-10 178.5,-10"/>
<text text-anchor="start" x="202.23" y="-15.4" font-family="Times-12" font-size="14.00"> &#160;Module</text>
<polygon fill="#80b1d3" stroke="transparent" points="264.5,-10 264.5,-30 284.5,-30 284.5,-10 264.5,-10"/>
<text text-anchor="start" x="288.28" y="-15.4" font-family="Times-12" font-size="14.00"> &#160;Bootstrap</text>
<polygon fill="#fdb462" stroke="transparent" points="361.5,-10 361.5,-30 381.5,-30 381.5,-10 361.5,-10"/>
<text text-anchor="start" x="385.17" y="-15.4" font-family="Times-12" font-size="14.00"> &#160;Providers</text>
<polygon fill="#fb8072" stroke="transparent" points="457.5,-10 457.5,-30 477.5,-30 477.5,-10 457.5,-10"/>
<text text-anchor="start" x="481.23" y="-15.4" font-family="Times-12" font-size="14.00"> &#160;Exports</text>
<g id="clust1" class="cluster">
<title>cluster_AppModule</title>
<polygon fill="none" stroke="black" stroke-dasharray="1,5" points="8,-70 8,-195 591,-195 591,-70 8,-70"/>
</g>
<g id="clust3" class="cluster">
<title>cluster_AppModule_imports</title>
<polygon fill="none" stroke="black" points="16,-78 16,-130 583,-130 583,-78 16,-78"/>
</g>
<!-- AuthModule -->
<g id="node1" class="node">
<title>AuthModule</title>
<polygon fill="#8dd3c7" stroke="black" points="574.55,-122 571.55,-126 550.55,-126 547.55,-122 487.45,-122 487.45,-86 574.55,-86 574.55,-122"/>
<text text-anchor="middle" x="531" y="-99.8" font-family="Times,serif" font-size="14.00">AuthModule</text>
</g>
<!-- AppModule -->
<g id="node6" class="node">
<title>AppModule</title>
<polygon fill="#8dd3c7" stroke="black" points="350.66,-187 347.66,-191 326.66,-191 323.66,-187 267.34,-187 267.34,-151 350.66,-151 350.66,-187"/>
<text text-anchor="middle" x="309" y="-164.8" font-family="Times,serif" font-size="14.00">AppModule</text>
</g>
<!-- AuthModule&#45;&gt;AppModule -->
<g id="edge1" class="edge">
<title>AuthModule&#45;&gt;AppModule</title>
<path fill="none" stroke="black" d="M531,-122.28C531,-143.32 531,-175 531,-175 531,-175 360.76,-175 360.76,-175"/>
<polygon fill="black" stroke="black" points="360.76,-171.5 350.76,-175 360.76,-178.5 360.76,-171.5"/>
</g>
<!-- BaseModule -->
<g id="node2" class="node">
<title>BaseModule</title>
<polygon fill="#8dd3c7" stroke="black" points="469.26,-122 466.26,-126 445.26,-126 442.26,-122 382.74,-122 382.74,-86 469.26,-86 469.26,-122"/>
<text text-anchor="middle" x="426" y="-99.8" font-family="Times,serif" font-size="14.00">BaseModule</text>
</g>
<!-- BaseModule&#45;&gt;AppModule -->
<g id="edge2" class="edge">
<title>BaseModule&#45;&gt;AppModule</title>
<path fill="none" stroke="black" d="M426,-122.02C426,-139.37 426,-163 426,-163 426,-163 360.91,-163 360.91,-163"/>
<polygon fill="black" stroke="black" points="360.91,-159.5 350.91,-163 360.91,-166.5 360.91,-159.5"/>
</g>
<!-- CommonModule -->
<g id="node3" class="node">
<title>CommonModule</title>
<polygon fill="#8dd3c7" stroke="black" points="364.67,-122 361.67,-126 340.67,-126 337.67,-122 253.33,-122 253.33,-86 364.67,-86 364.67,-122"/>
<text text-anchor="middle" x="309" y="-99.8" font-family="Times,serif" font-size="14.00">CommonModule</text>
</g>
<!-- CommonModule&#45;&gt;AppModule -->
<g id="edge3" class="edge">
<title>CommonModule&#45;&gt;AppModule</title>
<path fill="none" stroke="black" d="M309,-122.11C309,-122.11 309,-140.99 309,-140.99"/>
<polygon fill="black" stroke="black" points="305.5,-140.99 309,-150.99 312.5,-140.99 305.5,-140.99"/>
</g>
<!-- FirestoreModule -->
<g id="node4" class="node">
<title>FirestoreModule</title>
<polygon fill="#8dd3c7" stroke="black" points="235.81,-122 232.81,-126 211.81,-126 208.81,-122 126.19,-122 126.19,-86 235.81,-86 235.81,-122"/>
<text text-anchor="middle" x="181" y="-99.8" font-family="Times,serif" font-size="14.00">FirestoreModule</text>
</g>
<!-- FirestoreModule&#45;&gt;AppModule -->
<g id="edge4" class="edge">
<title>FirestoreModule&#45;&gt;AppModule</title>
<path fill="none" stroke="black" d="M181,-122.02C181,-139.37 181,-163 181,-163 181,-163 257.09,-163 257.09,-163"/>
<polygon fill="black" stroke="black" points="257.09,-166.5 267.09,-163 257.09,-159.5 257.09,-166.5"/>
</g>
<!-- RestModule -->
<g id="node5" class="node">
<title>RestModule</title>
<polygon fill="#8dd3c7" stroke="black" points="108.44,-122 105.44,-126 84.44,-126 81.44,-122 23.56,-122 23.56,-86 108.44,-86 108.44,-122"/>
<text text-anchor="middle" x="66" y="-99.8" font-family="Times,serif" font-size="14.00">RestModule</text>
</g>
<!-- RestModule&#45;&gt;AppModule -->
<g id="edge5" class="edge">
<title>RestModule&#45;&gt;AppModule</title>
<path fill="none" stroke="black" d="M66,-122.28C66,-143.32 66,-175 66,-175 66,-175 257.23,-175 257.23,-175"/>
<polygon fill="black" stroke="black" points="257.23,-178.5 267.23,-175 257.23,-171.5 257.23,-178.5"/>
</g>
</g>
</svg>
